# xmcd
# 
# Track frame offsets:
#     150
#     13155
#     35880
#     49345
#     71989
#     114354
#     128583
#     150372
#     166208
#     180155
#     195629
#     209276
#     235886
#     252088
#     273360
#     304388
#     336277
# 
# Disc length: 4712
# 
# Revision: 4
# Processed by: cddbd v1.5.2PL0 Copyright (c) Steve Scherf et al.
# Submitted via: fre:ac v1.0.31
# 
DISCID=ee126611
DTITLE=Duane Allman - Skydog:  The Duane Allman Retrospective Disc 5
DYEAR=2013
DGENRE=Rock/Pop
TTITLE0=Eric Quincy Tate - Comin' Down (demo version)
TTITLE1=The Allman Brothers Band - Hoochie Coochie Man (live)
TTITLE2=The Allman Brothers Band - Midnight Rider
TTITLE3=The Allman Brothers Band - Dimples (live)
TTITLE4=The Allman Brothers Band - I'm Gonna Move to the Outskirts of Town (live)
TTITLE5=Delaney and Bonnie and Friends - Soul Shake
TTITLE6=Laura Nyro - Beads of Sweat
TTITLE7=The Allman Brothers Band - Don't Keep Me Wonderin'
TTITLE8=Delaney and Bonnie and Friends - Living on the Open Road
TTITLE9=Ella Brown - A Woman Left Lonely
TTITLE10=Ella Brown - Touch Me
TTITLE11=Bobby Lance - More Than Enough Rain
TTITLE12=Derek and The Dominos - I Am Yours
TTITLE13=Derek and The Dominos - Why Does Love Got to Be So Sad?
TTITLE14=Derek and The Dominos - Have You Ever Loved a Woman
TTITLE15=Derek and The Dominos - Layla
TTITLE16=Eric Clapton and Duane Allman - Mean Old World
EXTD=
EXTT0=
EXTT1=
EXTT2=
EXTT3=
EXTT4=
EXTT5=
EXTT6=
EXTT7=
EXTT8=
EXTT9=
EXTT10=
EXTT11=
EXTT12=
EXTT13=
EXTT14=
EXTT15=
EXTT16=
PLAYORDER=
